<svg width="79" height="39" viewBox="0 0 79 39" fill="none" xmlns="http://www.w3.org/2000/svg">
<g filter="url(#filter0_d_8_3)">
<path d="M59.025 6.58239e-05C54.765 6.58239e-05 50.7417 1.61344 47.8721 4.40805L39.5 11.6394L35.0033 15.5H35.0329L27.075 22.3857C25.1817 24.2296 22.6671 25.2379 19.975 25.2379C14.4429 25.2379 9.94625 20.8876 9.94625 15.5C9.94625 10.1125 14.4429 5.76214 19.975 5.76214C22.6671 5.76214 25.1817 6.7705 27.1933 8.7296L30.5363 11.6106L35.0033 7.75005L31.2758 4.5521C29.7944 3.10389 28.0329 1.95596 26.0932 1.17464C24.1535 0.393317 22.0741 -0.00589701 19.975 6.58239e-05C11.1592 6.58239e-05 4 6.97217 4 15.5C4 24.0279 11.1592 31 19.975 31C24.235 31 28.2583 29.3866 31.1279 26.592L39.5 19.3894L39.5296 19.4182L43.9967 15.5H43.9671L51.925 8.61436C53.8183 6.7705 56.3329 5.76214 59.025 5.76214C64.5571 5.76214 69.0537 10.1125 69.0537 15.5C69.0537 20.8876 64.5571 25.2379 59.025 25.2379C56.3625 25.2379 53.8183 24.2296 51.8067 22.2705L48.4342 19.3606L43.9671 23.2212L47.7242 26.448C49.2096 27.8889 50.9725 29.0302 52.9117 29.8064C54.8509 30.5826 56.9284 30.9784 59.025 30.9712C67.8408 30.9712 75 24.0279 75 15.4712C75 6.91455 67.8408 6.58239e-05 59.025 6.58239e-05Z" fill="#4960DC"/>
</g>
<defs>
<filter id="filter0_d_8_3" x="0" y="0" width="79" height="39" filterUnits="userSpaceOnUse" color-interpolation-filters="sRGB">
<feFlood flood-opacity="0" result="BackgroundImageFix"/>
<feColorMatrix in="SourceAlpha" type="matrix" values="0 0 0 0 0 0 0 0 0 0 0 0 0 0 0 0 0 0 127 0" result="hardAlpha"/>
<feOffset dy="4"/>
<feGaussianBlur stdDeviation="2"/>
<feComposite in2="hardAlpha" operator="out"/>
<feColorMatrix type="matrix" values="0 0 0 0 0 0 0 0 0 0 0 0 0 0 0 0 0 0 0.25 0"/>
<feBlend mode="normal" in2="BackgroundImageFix" result="effect1_dropShadow_8_3"/>
<feBlend mode="normal" in="SourceGraphic" in2="effect1_dropShadow_8_3" result="shape"/>
</filter>
</defs>
</svg>
